<svg width="60" height="60" viewBox="0 0 60 60" fill="none" xmlns="http://www.w3.org/2000/svg">
<g clip-path="url(#clip0_1_20)">
<path d="M58.8862 26.5661C57.8807 25.2625 56.3611 24.5147 54.7171 24.5147H49.2904C49.3128 23.9317 49.324 23.3457 49.324 22.7573C49.324 21.7868 48.5372 21 47.5667 21H1.75738C0.786833 20.9999 3.5955e-05 21.7868 3.5955e-05 22.7573C3.5955e-05 33.2079 3.55351 42.8666 9.49504 49.1182H1.75738C1.14824 49.1182 0.582575 49.4336 0.262419 49.9516C-0.0577375 50.4697 -0.0868 51.1167 0.185427 51.6614C2.65129 56.593 7.73394 59.7796 13.1344 59.7796H36.1925C41.5911 59.7796 46.6725 56.593 49.1384 51.6614C49.4107 51.1166 49.3817 50.4697 49.0614 49.9516C48.7412 49.4336 48.1756 49.1182 47.5664 49.1182H39.8288C40.8852 48.0067 41.8662 46.7876 42.7651 45.4753C46.511 45.0443 50.1798 43.5238 53.1821 41.1423C56.4613 38.541 58.8189 35.0092 59.8205 31.1975C60.2466 29.5765 59.9059 27.8884 58.8862 26.5661ZM33.5076 34.0295V38.5738H29.9928V34.0295L31.7501 32.2721L33.5076 34.0295ZM44.2493 52.6095C42.1845 54.8763 39.2539 56.2648 36.1927 56.2648H13.1345C10.0718 56.2648 7.14015 54.8763 5.07496 52.6095H44.2493ZM34.5794 49.1181H14.7447C8.17339 44.1634 3.97785 34.9021 3.55082 24.5147H29.9928V29.059L26.9928 32.059C26.6632 32.3885 26.478 32.8355 26.478 33.3016V40.3311C26.478 41.3017 27.2648 42.0885 28.2353 42.0885H35.2648C36.2353 42.0885 37.0221 41.3017 37.0221 40.3311V33.3016C37.0221 32.8356 36.8369 32.3886 36.5073 32.059L33.5073 29.059V24.4913H45.773C45.3932 33.7354 41.8393 43.6444 34.5794 49.1181ZM56.4212 30.3041C55.045 35.5417 50.5541 39.8265 45.1374 41.42C47.1166 37.4333 48.4527 32.8737 49.0183 28.0295H54.7169C55.4643 28.0295 55.9061 28.4575 56.1027 28.7126C56.4521 29.1653 56.5681 29.7454 56.4212 30.3041Z" fill="#5AB963"/>
<path d="M37.2574 14.5145C37.0098 14.2928 36.0849 13.2687 36.0849 12.309C36.0849 11.3886 36.9591 10.3777 37.2573 10.1036C38.7522 8.76493 39.5756 7.05164 39.5756 5.27953C39.5756 3.50742 38.7523 1.79414 37.2573 0.455511C36.5343 -0.19195 35.4233 -0.130661 34.7757 0.592386C34.1282 1.31555 34.1895 2.42649 34.9126 3.07395C35.6636 3.7466 36.0608 4.50926 36.0608 5.27942C36.0608 6.04957 35.6639 6.81246 34.9127 7.485C34.6728 7.69981 32.5702 9.65907 32.5702 12.309C32.5702 14.959 34.6729 16.9182 34.9127 17.133C35.6361 17.7807 36.747 17.719 37.3942 16.9961C38.0416 16.273 37.9804 15.162 37.2574 14.5145ZM26.7131 14.5145C26.4655 14.2928 25.5406 13.2687 25.5406 12.309C25.5406 11.3886 26.4148 10.3777 26.713 10.1036C28.2079 8.76493 29.0313 7.05164 29.0313 5.27953C29.0313 3.50742 28.208 1.79414 26.713 0.455511C25.9899 -0.19195 24.879 -0.130661 24.2314 0.592386C23.5839 1.31555 23.6452 2.42649 24.3683 3.07395C25.1193 3.7466 25.5165 4.50926 25.5165 5.27942C25.5165 6.04957 25.1196 6.81246 24.3684 7.485C24.1286 7.69981 22.0259 9.65907 22.0259 12.309C22.0259 14.959 24.1286 16.9182 24.3684 17.133C25.0918 17.7807 26.2027 17.719 26.85 16.9961C27.4973 16.273 27.436 15.162 26.7131 14.5145ZM16.1688 14.5145C15.9212 14.2928 14.9963 13.2687 14.9963 12.309C14.9963 11.3886 15.8705 10.3777 16.1687 10.1036C17.6636 8.76493 18.487 7.05164 18.487 5.27953C18.487 3.50742 17.6637 1.79414 16.1687 0.455511C15.4456 -0.19195 14.3346 -0.130661 13.6871 0.592386C13.0396 1.31555 13.1009 2.42649 13.824 3.07395C14.575 3.7466 14.9722 4.50926 14.9722 5.27942C14.9722 6.04957 14.5753 6.81246 13.8241 7.485C13.5842 7.69981 11.4816 9.65907 11.4816 12.309C11.4816 14.959 13.5843 16.9182 13.8241 17.133C14.5474 17.7807 15.6584 17.719 16.3057 16.9961C16.953 16.273 16.8917 15.162 16.1688 14.5145Z" fill="black"/>
</g>
<defs>
<clipPath id="clip0_1_20">
<rect width="60" height="60" fill="white"/>
</clipPath>
</defs>
</svg>
