<svg width="60" height="53" viewBox="0 0 60 53" fill="none" xmlns="http://www.w3.org/2000/svg">
<g clip-path="url(#clip0_1_28)">
<path d="M58.2009 31.196C59.9061 29.1103 60.4028 26.6099 59.6752 23.7621C58.9692 20.9991 56.906 18.7744 54.1564 17.8112C51.3546 16.8294 48.2754 17.2893 45.9202 19.0413C45.5525 19.3148 44.3202 20.2001 43.8778 20.3755C43.6488 20.4663 43.4502 20.6001 43.2866 20.7629C34.2382 25.9312 22.684 25.3579 14.1926 19.0412C13.7746 18.7303 13.333 18.4609 12.8741 18.2322C12.8645 18.2269 12.8544 18.2224 12.8447 18.2174C10.7111 17.1638 8.19962 17.0043 5.86641 17.8215C3.09622 18.792 1.02282 21.0128 0.320396 23.7619C-0.36058 26.4268 0.220084 29.1425 1.77833 31.2175C1.09653 32.1184 0.593209 33.1418 0.320396 34.2099C-0.412143 37.0768 0.113091 39.5938 1.88169 41.6911C3.63176 43.7664 6.23895 45.0291 8.21145 46.2217C14.7761 50.1906 22.33 52.2884 30.0564 52.2884C42.9176 52.2884 50.799 46.8882 55.747 43.8967C59.0647 41.8912 60.6434 37.9984 59.6754 34.2099C59.4001 33.1333 58.8911 32.1021 58.2009 31.196ZM53.9194 40.9231L50.0736 43.2483C37.7266 50.713 22.3862 50.713 10.0392 43.2483C6.12153 40.8798 2.60766 39.4361 3.72422 35.0657C3.8604 34.533 4.09629 34.017 4.41364 33.5459C9.04067 36.2608 10.4408 37.1743 13.4653 38.4627L14.3223 40.5876C14.5969 41.2684 15.2562 41.6827 15.953 41.6827C16.17 41.6827 16.3906 41.6425 16.6044 41.5576C17.2692 41.2939 17.6807 40.6721 17.706 40.0054C19.6869 40.6082 21.713 41.0658 23.7686 41.3729L24.8564 44.0702C25.2162 44.9626 26.2376 45.3976 27.1386 45.0403C28.0389 44.6831 28.4768 43.6697 28.1166 42.7769L27.7125 41.7751C28.4915 41.8181 29.273 41.8406 30.0564 41.8406C31.5128 41.8406 32.9631 41.7659 34.4017 41.6183L35.3905 44.0701C35.7506 44.9635 36.7726 45.3972 37.6726 45.0403C38.573 44.6831 39.0109 43.6697 38.6507 42.7769L37.9734 41.0976C40.4727 40.6238 42.9212 39.9257 45.2897 39.013L45.9246 40.5876C46.1992 41.2684 46.8584 41.6827 47.5553 41.6827C47.7723 41.6827 47.9929 41.6425 48.2066 41.5576C49.107 41.2005 49.5449 40.1871 49.1847 39.2941L48.5077 37.6155C50.8057 36.5014 54.5748 34.2287 55.5754 33.5359C55.8961 34.0095 56.1341 34.5292 56.2712 35.0656C56.8678 37.3996 55.9446 39.6988 53.9194 40.9231ZM50.0732 32.7998C38.2792 39.9301 23.2488 40.5931 10.0188 32.788C5.38325 30.0681 5.87907 30.3893 5.27907 29.8881C3.81961 28.594 3.2127 26.6191 3.72411 24.6177C4.14364 22.976 5.35055 21.6959 7.03583 21.1056C8.24251 20.6828 9.52184 20.6852 10.669 21.0811L14.3222 30.1395C14.5968 30.8204 15.2561 31.2346 15.9529 31.2346C16.1699 31.2346 16.3904 31.1944 16.6043 31.1095C17.5045 30.7524 17.9425 29.739 17.5822 28.8461L15.6784 24.1254C17.7045 25.2272 19.8423 26.0844 22.0598 26.6882L24.8562 33.622C25.1307 34.3029 25.79 34.7171 26.4868 34.7171C26.7039 34.7171 26.9244 34.6769 27.1383 34.5921C28.0385 34.2349 28.4765 33.2215 28.1162 32.3285L26.1703 27.5036C27.4487 27.6658 28.7454 27.7491 30.056 27.7491C31.0344 27.7491 32.0051 27.7023 32.9664 27.6117L35.3902 33.6218C35.6647 34.3027 36.324 34.7169 37.0208 34.7169C37.2379 34.7169 37.4584 34.6767 37.6721 34.5918C38.5725 34.2347 39.0104 33.2213 38.6502 32.3284L36.5259 27.0612C39.007 26.524 41.3994 25.6751 43.6617 24.5292L45.9243 30.1391C46.1988 30.82 46.8581 31.2342 47.5549 31.2342C47.772 31.2342 47.9925 31.194 48.2064 31.1092C49.1066 30.752 49.5445 29.7386 49.1843 28.8456L46.723 22.7429C47.1638 22.4495 47.5988 22.145 48.0264 21.827C49.44 20.7755 51.2943 20.5017 52.9865 21.0945C54.6507 21.6775 55.8479 22.9616 56.271 24.6172C57.3875 28.9869 53.9823 30.4365 50.0732 32.7998Z" fill="#5AB963"/>
<path d="M22.2809 10.1698C23.9472 9.06794 24.942 7.22444 24.942 5.23822C24.942 3.25212 23.9472 1.40851 22.2809 0.306781C21.4739 -0.22659 20.384 -0.0105216 19.8462 0.789709C19.3083 1.58994 19.5263 2.67109 20.3331 3.20446C21.0305 3.66554 21.4306 4.40696 21.4306 5.23822C21.4306 6.06948 21.0305 6.8109 20.3331 7.2721C18.6668 8.37382 17.672 10.2173 17.672 12.2035C17.672 14.1896 18.6668 16.0333 20.3331 17.1351C21.1403 17.6687 22.2304 17.452 22.7678 16.6522C23.3057 15.8519 23.0877 14.7708 22.2809 14.2374C21.5835 13.7763 21.1834 13.0349 21.1834 12.2035C21.1834 11.3722 21.5835 10.6309 22.2809 10.1698ZM31.0594 10.1698C32.7257 9.06794 33.7205 7.22444 33.7205 5.23822C33.7205 3.25212 32.7257 1.40851 31.0594 0.306781C30.2524 -0.22659 29.1626 -0.0105216 28.6247 0.789709C28.0868 1.58994 28.3048 2.67109 29.1116 3.20446C29.809 3.66554 30.2091 4.40696 30.2091 5.23822C30.2091 6.06948 29.809 6.8109 29.1116 7.2721C27.4453 8.37382 26.4505 10.2173 26.4505 12.2035C26.4505 14.1896 27.4453 16.0333 29.1116 17.1351C29.9188 17.6687 31.0088 17.452 31.5463 16.6522C32.0843 15.8519 31.8662 14.7708 31.0594 14.2374C30.362 13.7763 29.9619 13.0349 29.9619 12.2035C29.9619 11.3722 30.362 10.6309 31.0594 10.1698ZM39.8378 10.1698C41.5041 9.06794 42.4989 7.22444 42.4989 5.23822C42.4989 3.25212 41.5041 1.40851 39.8378 0.306781C39.0309 -0.22659 37.9409 -0.0105216 37.4031 0.789709C36.8651 1.58994 37.0832 2.67109 37.89 3.20446C38.5874 3.66554 38.9875 4.40696 38.9875 5.23822C38.9875 6.06948 38.5874 6.8109 37.89 7.2721C36.2237 8.37382 35.2289 10.2173 35.2289 12.2035C35.2289 14.1896 36.2237 16.0333 37.89 17.1351C38.6972 17.6687 39.7872 17.452 40.3247 16.6522C40.8626 15.8519 40.6446 14.7708 39.8378 14.2374C39.1404 13.7763 38.7403 13.0349 38.7403 12.2035C38.7404 11.3722 39.1404 10.6309 39.8378 10.1698Z" fill="black"/>
</g>
<defs>
<clipPath id="clip0_1_28">
<rect width="60" height="53" fill="white"/>
</clipPath>
</defs>
</svg>
